<svg width="280" height="150" viewBox="0 0 280 150" fill="none" xmlns="http://www.w3.org/2000/svg">
<path d="M43.5346 102V50.1132H54.2579V92.6604H69.8239V102H43.5346ZM97.9851 103.038C94.1801 103.038 90.6249 102.346 87.3195 100.962C84.0141 99.5402 81.0931 97.5992 78.5564 95.1394C76.0581 92.6796 74.098 89.8162 72.6759 86.5493C71.2538 83.2823 70.5427 79.7848 70.5427 76.0566C70.5427 72.3284 71.2538 68.8309 72.6759 65.5639C74.098 62.297 76.0581 59.4336 78.5564 56.9738C81.0931 54.514 84.0141 52.5922 87.3195 51.2086C90.6249 49.7865 94.1801 49.0755 97.9851 49.0755C101.79 49.0755 105.345 49.7865 108.651 51.2086C111.956 52.5922 114.858 54.514 117.356 56.9738C119.893 59.4336 121.872 62.297 123.294 65.5639C124.716 68.8309 125.427 72.3284 125.427 76.0566C125.427 79.7848 124.716 83.2823 123.294 86.5493C121.872 89.8162 119.893 92.6796 117.356 95.1394C114.858 97.5992 111.956 99.5402 108.651 100.962C105.345 102.346 101.79 103.038 97.9851 103.038ZM97.9851 93.0063C101.098 93.0063 103.904 92.2568 106.402 90.7579C108.901 89.2205 110.88 87.1642 112.34 84.5891C113.839 82.014 114.589 79.1698 114.589 76.0566C114.589 72.905 113.839 70.0608 112.34 67.5241C110.88 64.949 108.901 62.912 106.402 61.413C103.904 59.8756 101.098 59.1069 97.9851 59.1069C94.8719 59.1069 92.0469 59.8756 89.5103 61.413C87.012 62.912 85.0326 64.949 83.5721 67.5241C82.1116 70.0608 81.3813 72.905 81.3813 76.0566C81.3813 79.1698 82.1116 82.014 83.5721 84.5891C85.0326 87.1642 87.012 89.2205 89.5103 90.7579C92.0469 92.2568 94.8719 93.0063 97.9851 93.0063ZM159.691 103.038C155.77 103.038 152.1 102.384 148.679 101.078C145.297 99.7324 142.318 97.8491 139.743 95.4277C137.206 93.0063 135.227 90.1621 133.805 86.8952C132.383 83.6282 131.672 80.0538 131.672 76.1719C131.672 72.29 132.383 68.7156 133.805 65.4486C135.227 62.1433 137.206 59.2799 139.743 56.8585C142.318 54.3987 145.278 52.4962 148.622 51.1509C152.004 49.7673 155.655 49.0755 159.575 49.0755C163.111 49.0755 166.417 49.6328 169.492 50.7474C172.566 51.862 175.295 53.4378 177.678 55.4748L174.738 67.3512C173.277 64.9682 171.26 62.9696 168.684 61.3553C166.148 59.7027 163.111 58.8763 159.575 58.8763C156.308 58.8763 153.387 59.6258 150.812 61.1247C148.237 62.6237 146.2 64.6799 144.701 67.2935C143.241 69.9071 142.51 72.8665 142.51 76.1719C142.51 79.5542 143.241 82.5521 144.701 85.1656C146.2 87.7407 148.237 89.7778 150.812 91.2767C153.387 92.7372 156.289 93.4675 159.518 93.4675C161.094 93.4675 162.554 93.3138 163.899 93.0063C165.245 92.6988 166.455 92.2376 167.531 91.6226V81.5912H156.981V72.9434H176.986V98.1373C174.603 99.6747 171.932 100.885 168.973 101.769C166.052 102.615 162.958 103.038 159.691 103.038ZM212.136 103.038C208.331 103.038 204.776 102.346 201.47 100.962C198.165 99.5402 195.244 97.5992 192.707 95.1394C190.209 92.6796 188.249 89.8162 186.827 86.5493C185.405 83.2823 184.694 79.7848 184.694 76.0566C184.694 72.3284 185.405 68.8309 186.827 65.5639C188.249 62.297 190.209 59.4336 192.707 56.9738C195.244 54.514 198.165 52.5922 201.47 51.2086C204.776 49.7865 208.331 49.0755 212.136 49.0755C215.941 49.0755 219.496 49.7865 222.802 51.2086C226.107 52.5922 229.009 54.514 231.507 56.9738C234.044 59.4336 236.023 62.297 237.445 65.5639C238.867 68.8309 239.578 72.3284 239.578 76.0566C239.578 79.7848 238.867 83.2823 237.445 86.5493C236.023 89.8162 234.044 92.6796 231.507 95.1394C229.009 97.5992 226.107 99.5402 222.802 100.962C219.496 102.346 215.941 103.038 212.136 103.038ZM212.136 93.0063C215.249 93.0063 218.055 92.2568 220.553 90.7579C223.051 89.2205 225.031 87.1642 226.491 84.5891C227.99 82.014 228.74 79.1698 228.74 76.0566C228.74 72.905 227.99 70.0608 226.491 67.5241C225.031 64.949 223.051 62.912 220.553 61.413C218.055 59.8756 215.249 59.1069 212.136 59.1069C209.023 59.1069 206.198 59.8756 203.661 61.413C201.163 62.912 199.184 64.949 197.723 67.5241C196.263 70.0608 195.532 72.905 195.532 76.0566C195.532 79.1698 196.263 82.014 197.723 84.5891C199.184 87.1642 201.163 89.2205 203.661 90.7579C206.198 92.2568 209.023 93.0063 212.136 93.0063Z" fill="url(#paint0_linear_992_1258)"/>
<defs>
<linearGradient id="paint0_linear_992_1258" x1="246.723" y1="13.2833" x2="179.506" y2="168.049" gradientUnits="userSpaceOnUse">
<stop stop-color="#06caf6"/>
<stop offset="0.460021" stop-color="#30cbb6"/>
<stop offset="1" stop-color="#09fccb"/>
</linearGradient>
</defs>
</svg>
